# xmcd CD database file
#
# Track frame offsets:
#	150
#	15734
#	28930
#	39864
#	49039
#	63994
#	77693
#	92146
#	106850
#	122685
#	132237
#	141914
#
# Disc length: 2041 seconds
#
# Revision: 0
# Processed by: cddbd v1.5.2PL0 Copyright (c) Steve Scherf et al.
# Submitted via: CDex 1.81
#
DISCID=9907f70c
DTITLE=Max and Jenine Bacon - Ozark Mountain Jubilee
DYEAR=2002
DGENRE=Country
TTITLE0=Ozark Mountain Jubillee
TTITLE1=Forty Miles from Poplar Bluff
TTITLE2=Through the Years (feat. J. Bacon, N. Cantrell)
TTITLE3=Turn Your Radio On
TTITLE4=North to Alaska
TTITLE5=Beautiful Star of Bethlehem
TTITLE6=Green Green Grass of Home
TTITLE7=Daddy was an Old Time Preacher Man
TTITLE8=Grandpa Parker's Dog (feat. D. Pierce, J. Bacon)
TTITLE9=Springfield Fair
TTITLE10=Fifteen Dollar Banjo (feat. J. Bacon)
TTITLE11=Oh Shenando
EXTD=YEAR: 2002
EXTT0=
EXTT1=
EXTT2=
EXTT3=
EXTT4=
EXTT5=
EXTT6=
EXTT7=
EXTT8=
EXTT9=
EXTT10=
EXTT11=
PLAYORDER=
